# xmcd
#
# Track frame offsets: 
#        150
#        12692
#        42757
#        54354
#        76348
#        88810
#        103130
#        126517
#        144531
#        157586
#        168245
#        180815
#
# Disc length: 2684 seconds
#
# Revision: 1
# Processed by: cddbd v1.5.1PL0 Copyright (c) Steve Scherf et al.
# Submitted via: ExactAudioCopy v0.95a3
#
DISCID=900a7a0c
DTITLE=Livin' Blues - Hell's Session and 4 extra tracks
DYEAR=1969
DGENRE=Blues
TTITLE0=Waitin' On You
TTITLE1=One Night Blues
TTITLE2=Blowlegged Woman
TTITLE3=Hell's Session
TTITLE4=Big Road Blues
TTITLE5=Black Panther
TTITLE6=Worried Dreams
TTITLE7=Big Black Train
TTITLE8=Murphy McCoy
TTITLE9=My Sister Kate
TTITLE10=You Better Watch Yourself (Sonny Boy)
TTITLE11=One Night Blues
EXTD=
EXTT0=
EXTT1=
EXTT2=
EXTT3=
EXTT4=
EXTT5=
EXTT6=
EXTT7=
EXTT8=
EXTT9=
EXTT10=
EXTT11=
PLAYORDER=
